<?xml version="1.0" encoding="utf-8" standalone="no"?>
<!DOCTYPE svg PUBLIC "-//W3C//DTD SVG 1.1//EN"
  "http://www.w3.org/Graphics/SVG/1.1/DTD/svg11.dtd">
<svg xmlns:xlink="http://www.w3.org/1999/xlink" width="1071.366335pt" height="423.046562pt" viewBox="0 0 1071.366335 423.046562" xmlns="http://www.w3.org/2000/svg" version="1.1">
 <metadata>
  <rdf:RDF xmlns:dc="http://purl.org/dc/elements/1.1/" xmlns:cc="http://creativecommons.org/ns#" xmlns:rdf="http://www.w3.org/1999/02/22-rdf-syntax-ns#">
   <cc:Work>
    <dc:type rdf:resource="http://purl.org/dc/dcmitype/StillImage"/>
    <dc:date>2025-06-19T22:35:00.546250</dc:date>
    <dc:format>image/svg+xml</dc:format>
    <dc:creator>
     <cc:Agent>
      <dc:title>Matplotlib v3.10.3, https://matplotlib.org/</dc:title>
     </cc:Agent>
    </dc:creator>
   </cc:Work>
  </rdf:RDF>
 </metadata>
 <defs>
  <style type="text/css">*{stroke-linejoin: round; stroke-linecap: butt}</style>
 </defs>
 <g id="figure_1">
  <g id="patch_1">
   <path d="M 0 423.046562 
L 1071.366335 423.046562 
L 1071.366335 0 
L 0 0 
z
" style="fill: #ffffff"/>
  </g>
  <g id="axes_1">
   <g id="patch_2">
    <path d="M 52.175625 381.79125 
L 530.80098 381.79125 
L 530.80098 24.39125 
L 52.175625 24.39125 
z
" style="fill: #ffffff"/>
   </g>
   <g id="matplotlib.axis_1">
    <g id="xtick_1">
     <g id="line2d_1">
      <path d="M 108.895838 381.79125 
L 108.895838 24.39125 
" clip-path="url(#pdde9c4394f)" style="fill: none; stroke-dasharray: 3.7,1.6; stroke-dashoffset: 0; stroke: #ffffff; stroke-opacity: 0.3"/>
     </g>
     <g id="line2d_2"/>
     <g id="text_1">
      <!-- 100 -->
      <g style="fill: #262626" transform="translate(100.099744 396.785) scale(0.1 -0.1)">
       <defs>
        <path id="MicrosoftYaHei-31" d="M 1781 0 
L 1781 4141 
Q 1638 3997 1295 3819 
Q 953 3641 663 3569 
L 663 4169 
Q 1047 4275 1484 4508 
Q 1922 4741 2156 4947 
L 2388 4947 
L 2388 0 
L 1781 0 
z
" transform="scale(0.015625)"/>
        <path id="MicrosoftYaHei-30" d="M 284 2325 
Q 284 3606 709 4264 
Q 1134 4922 1941 4922 
Q 3478 4922 3478 2441 
Q 3478 1216 3045 567 
Q 2613 -81 1831 -81 
Q 1094 -81 689 534 
Q 284 1150 284 2325 
z
M 909 2353 
Q 909 425 1888 425 
Q 2850 425 2850 2384 
Q 2850 4413 1906 4413 
Q 909 4413 909 2353 
z
" transform="scale(0.015625)"/>
       </defs>
       <use xlink:href="#MicrosoftYaHei-31"/>
       <use xlink:href="#MicrosoftYaHei-30" transform="translate(58.642578 0)"/>
       <use xlink:href="#MicrosoftYaHei-30" transform="translate(117.285156 0)"/>
      </g>
     </g>
    </g>
    <g id="xtick_2">
     <g id="line2d_3">
      <path d="M 206.019489 381.79125 
L 206.019489 24.39125 
" clip-path="url(#pdde9c4394f)" style="fill: none; stroke-dasharray: 3.7,1.6; stroke-dashoffset: 0; stroke: #ffffff; stroke-opacity: 0.3"/>
     </g>
     <g id="line2d_4"/>
     <g id="text_2">
      <!-- 200 -->
      <g style="fill: #262626" transform="translate(197.223395 396.785) scale(0.1 -0.1)">
       <defs>
        <path id="MicrosoftYaHei-32" d="M 2666 3572 
Q 2666 3963 2419 4186 
Q 2172 4409 1747 4409 
Q 1447 4409 1140 4256 
Q 834 4103 569 3819 
L 569 4413 
Q 806 4659 1107 4790 
Q 1409 4922 1816 4922 
Q 2472 4922 2872 4570 
Q 3272 4219 3272 3619 
Q 3272 3084 3026 2693 
Q 2781 2303 2188 1894 
Q 1581 1475 1376 1294 
Q 1172 1113 1090 947 
Q 1009 781 1009 544 
L 3416 544 
L 3416 0 
L 372 0 
L 372 241 
Q 372 659 486 951 
Q 600 1244 862 1520 
Q 1125 1797 1681 2184 
Q 2250 2584 2458 2886 
Q 2666 3188 2666 3572 
z
" transform="scale(0.015625)"/>
       </defs>
       <use xlink:href="#MicrosoftYaHei-32"/>
       <use xlink:href="#MicrosoftYaHei-30" transform="translate(58.642578 0)"/>
       <use xlink:href="#MicrosoftYaHei-30" transform="translate(117.285156 0)"/>
      </g>
     </g>
    </g>
    <g id="xtick_3">
     <g id="line2d_5">
      <path d="M 303.143141 381.79125 
L 303.143141 24.39125 
" clip-path="url(#pdde9c4394f)" style="fill: none; stroke-dasharray: 3.7,1.6; stroke-dashoffset: 0; stroke: #ffffff; stroke-opacity: 0.3"/>
     </g>
     <g id="line2d_6"/>
     <g id="text_3">
      <!-- 300 -->
      <g style="fill: #262626" transform="translate(294.347047 396.785) scale(0.1 -0.1)">
       <defs>
        <path id="MicrosoftYaHei-33" d="M 447 809 
Q 944 425 1569 425 
Q 2069 425 2361 670 
Q 2653 916 2653 1328 
Q 2653 2247 1338 2247 
L 934 2247 
L 934 2753 
L 1319 2753 
Q 2484 2753 2484 3616 
Q 2484 4413 1594 4413 
Q 1084 4413 634 4069 
L 634 4647 
Q 1109 4922 1744 4922 
Q 2363 4922 2738 4598 
Q 3113 4275 3113 3759 
Q 3113 2809 2144 2538 
L 2144 2525 
Q 2669 2469 2973 2155 
Q 3278 1841 3278 1372 
Q 3278 719 2808 319 
Q 2338 -81 1556 -81 
Q 869 -81 447 175 
L 447 809 
z
" transform="scale(0.015625)"/>
       </defs>
       <use xlink:href="#MicrosoftYaHei-33"/>
       <use xlink:href="#MicrosoftYaHei-30" transform="translate(58.642578 0)"/>
       <use xlink:href="#MicrosoftYaHei-30" transform="translate(117.285156 0)"/>
      </g>
     </g>
    </g>
    <g id="xtick_4">
     <g id="line2d_7">
      <path d="M 400.266792 381.79125 
L 400.266792 24.39125 
" clip-path="url(#pdde9c4394f)" style="fill: none; stroke-dasharray: 3.7,1.6; stroke-dashoffset: 0; stroke: #ffffff; stroke-opacity: 0.3"/>
     </g>
     <g id="line2d_8"/>
     <g id="text_4">
      <!-- 400 -->
      <g style="fill: #262626" transform="translate(391.470699 396.785) scale(0.1 -0.1)">
       <defs>
        <path id="MicrosoftYaHei-34" d="M 2906 4841 
L 2906 1644 
L 3631 1644 
L 3631 1138 
L 2906 1138 
L 2906 0 
L 2313 0 
L 2313 1138 
L 53 1138 
L 53 1616 
Q 656 2294 1265 3178 
Q 1875 4063 2272 4841 
L 2906 4841 
z
M 741 1644 
L 2313 1644 
L 2313 3950 
Q 1988 3366 1616 2817 
Q 1244 2269 741 1644 
z
" transform="scale(0.015625)"/>
       </defs>
       <use xlink:href="#MicrosoftYaHei-34"/>
       <use xlink:href="#MicrosoftYaHei-30" transform="translate(58.642578 0)"/>
       <use xlink:href="#MicrosoftYaHei-30" transform="translate(117.285156 0)"/>
      </g>
     </g>
    </g>
    <g id="xtick_5">
     <g id="line2d_9">
      <path d="M 497.390444 381.79125 
L 497.390444 24.39125 
" clip-path="url(#pdde9c4394f)" style="fill: none; stroke-dasharray: 3.7,1.6; stroke-dashoffset: 0; stroke: #ffffff; stroke-opacity: 0.3"/>
     </g>
     <g id="line2d_10"/>
     <g id="text_5">
      <!-- 500 -->
      <g style="fill: #262626" transform="translate(488.59435 396.785) scale(0.1 -0.1)">
       <defs>
        <path id="MicrosoftYaHei-35" d="M 3294 1494 
Q 3294 784 2823 350 
Q 2353 -84 1559 -84 
Q 878 -84 544 119 
L 544 744 
Q 1034 425 1544 425 
Q 2050 425 2361 704 
Q 2672 984 2672 1447 
Q 2672 1909 2348 2167 
Q 2025 2425 1434 2425 
Q 978 2425 613 2384 
L 791 4841 
L 3053 4841 
L 3053 4303 
L 1306 4303 
L 1206 2931 
L 1647 2950 
Q 2416 2950 2855 2567 
Q 3294 2184 3294 1494 
z
" transform="scale(0.015625)"/>
       </defs>
       <use xlink:href="#MicrosoftYaHei-35"/>
       <use xlink:href="#MicrosoftYaHei-30" transform="translate(58.642578 0)"/>
       <use xlink:href="#MicrosoftYaHei-30" transform="translate(117.285156 0)"/>
      </g>
     </g>
    </g>
    <g id="text_6">
     <!-- 序列长度 -->
     <g style="fill: #262626" transform="translate(267.488303 412.863437) scale(0.12 -0.12)">
      <defs>
       <path id="MicrosoftYaHei-Bold-5e8f" d="M 1438 2491 
Q 1438 144 800 -859 
L 94 -259 
Q 625 659 613 2603 
L 613 4747 
L 2916 4747 
Q 2825 4975 2763 5116 
L 3781 5353 
L 4025 4747 
L 6225 4747 
L 6225 3978 
L 1438 3978 
L 1438 2491 
z
M 5894 3591 
L 5894 2822 
L 4475 1841 
L 6225 1841 
L 6225 1147 
L 5731 91 
L 4963 303 
L 5344 1097 
L 4338 1097 
L 4338 97 
Q 4338 -303 4158 -509 
Q 3978 -716 3695 -758 
Q 3413 -800 2388 -816 
Q 2319 -372 2206 9 
Q 2891 -22 3081 -22 
Q 3456 -22 3450 409 
L 3450 1097 
L 1600 1097 
L 1600 1841 
L 3191 1841 
Q 2713 2169 2250 2434 
L 2681 2847 
L 1831 2847 
L 1831 3591 
L 5894 3591 
z
M 4725 2847 
L 2934 2847 
L 3828 2244 
L 4725 2847 
z
" transform="scale(0.015625)"/>
       <path id="MicrosoftYaHei-Bold-5217" d="M 5069 5316 
L 5919 5316 
L 5919 266 
Q 5919 -206 5736 -456 
Q 5553 -706 5215 -742 
Q 4878 -778 3944 -772 
Q 3838 -184 3750 147 
Q 4181 122 4553 122 
Q 4781 122 4870 151 
Q 4959 181 5015 282 
Q 5072 384 5069 553 
L 5069 5316 
z
M 275 5028 
L 3550 5028 
L 3550 4203 
L 2025 4203 
Q 1928 3875 1813 3566 
L 3375 3566 
L 3375 2797 
Q 2956 522 919 -891 
Q 588 -466 281 -166 
Q 1219 388 1794 1169 
Q 1413 1531 1075 1834 
L 1531 2341 
Q 1834 2100 2184 1806 
Q 2406 2244 2538 2741 
L 1456 2741 
Q 1050 1925 488 1259 
Q 306 1684 75 2059 
Q 863 3075 1194 4203 
L 275 4203 
L 275 5028 
z
M 4525 716 
L 3725 716 
L 3725 4541 
L 4525 4541 
L 4525 716 
z
" transform="scale(0.015625)"/>
       <path id="MicrosoftYaHei-Bold-957f" d="M 175 2816 
L 1031 2816 
L 1031 5322 
L 1900 5322 
L 1900 2816 
L 6194 2816 
L 6194 2009 
L 3825 2009 
Q 4563 728 6313 216 
Q 6031 -153 5681 -647 
Q 3713 172 2969 2009 
L 1900 2009 
L 1900 266 
L 3513 797 
Q 3494 359 3506 -22 
Q 1653 -588 1269 -903 
L 794 -103 
Q 1031 134 1031 628 
L 1031 2009 
L 175 2009 
L 175 2816 
z
M 5006 5272 
L 5663 4491 
Q 4338 3747 2863 3091 
L 2350 3766 
Q 4013 4547 5006 5272 
z
" transform="scale(0.015625)"/>
       <path id="MicrosoftYaHei-Bold-5ea6" d="M 5656 1697 
L 5656 1022 
Q 5156 447 4656 97 
Q 5344 -34 6306 -66 
Q 6119 -428 5938 -822 
Q 4556 -653 3719 -353 
Q 2825 -653 1494 -872 
Q 1338 -522 1088 -178 
Q 2100 -128 2888 78 
Q 2369 453 1938 1022 
L 1538 1022 
L 1538 1697 
L 5656 1697 
z
M 1325 2478 
Q 1338 134 700 -884 
Q 356 -553 19 -297 
Q 550 697 525 2591 
L 525 4772 
L 3013 4772 
Q 2944 4953 2831 5209 
L 3869 5359 
Q 3981 5072 4094 4772 
L 6256 4772 
L 6256 4072 
L 1325 4072 
L 1325 2478 
z
M 1463 3684 
L 2144 3684 
L 2144 3947 
L 2944 3947 
L 2944 3684 
L 4494 3684 
L 4494 3947 
L 5294 3947 
L 5294 3684 
L 6144 3684 
L 6144 3009 
L 5294 3009 
L 5294 1991 
L 2144 1991 
L 2144 3009 
L 1463 3009 
L 1463 3684 
z
M 3756 378 
Q 4325 641 4725 1022 
L 2825 1022 
Q 3225 622 3756 378 
z
M 4494 2628 
L 4494 3009 
L 2944 3009 
L 2944 2628 
L 4494 2628 
z
" transform="scale(0.015625)"/>
      </defs>
      <use xlink:href="#MicrosoftYaHei-Bold-5e8f"/>
      <use xlink:href="#MicrosoftYaHei-Bold-5217" transform="translate(100 0)"/>
      <use xlink:href="#MicrosoftYaHei-Bold-957f" transform="translate(200 0)"/>
      <use xlink:href="#MicrosoftYaHei-Bold-5ea6" transform="translate(300 0)"/>
     </g>
    </g>
   </g>
   <g id="matplotlib.axis_2">
    <g id="ytick_1">
     <g id="line2d_11">
      <path d="M 52.175625 271.981575 
L 530.80098 271.981575 
" clip-path="url(#pdde9c4394f)" style="fill: none; stroke-dasharray: 3.7,1.6; stroke-dashoffset: 0; stroke: #ffffff; stroke-opacity: 0.3"/>
     </g>
     <g id="line2d_12"/>
     <g id="text_7">
      <!-- $\mathdefault{10^{-4}}$ -->
      <g style="fill: #262626" transform="translate(23.775625 275.97845) scale(0.1 -0.1)">
       <defs>
        <path id="MicrosoftYaHei-2212" d="M 3972 1772 
L 788 1772 
L 788 2250 
L 3972 2250 
L 3972 1772 
z
" transform="scale(0.015625)"/>
       </defs>
       <use xlink:href="#MicrosoftYaHei-31" transform="translate(0 0.251563)"/>
       <use xlink:href="#MicrosoftYaHei-30" transform="translate(58.642578 0.251563)"/>
       <use xlink:href="#MicrosoftYaHei-2212" transform="translate(118.230156 38.051563) scale(0.7)"/>
       <use xlink:href="#MicrosoftYaHei-34" transform="translate(170.149102 38.051563) scale(0.7)"/>
      </g>
     </g>
    </g>
    <g id="ytick_2">
     <g id="line2d_13">
      <path d="M 52.175625 36.909334 
L 530.80098 36.909334 
" clip-path="url(#pdde9c4394f)" style="fill: none; stroke-dasharray: 3.7,1.6; stroke-dashoffset: 0; stroke: #ffffff; stroke-opacity: 0.3"/>
     </g>
     <g id="line2d_14"/>
     <g id="text_8">
      <!-- $\mathdefault{10^{-3}}$ -->
      <g style="fill: #262626" transform="translate(23.775625 40.906209) scale(0.1 -0.1)">
       <use xlink:href="#MicrosoftYaHei-31" transform="translate(0 0.365625)"/>
       <use xlink:href="#MicrosoftYaHei-30" transform="translate(58.642578 0.365625)"/>
       <use xlink:href="#MicrosoftYaHei-2212" transform="translate(118.230156 38.165625) scale(0.7)"/>
       <use xlink:href="#MicrosoftYaHei-33" transform="translate(170.149102 38.165625) scale(0.7)"/>
      </g>
     </g>
    </g>
    <g id="ytick_3">
     <g id="line2d_15"/>
    </g>
    <g id="ytick_4">
     <g id="line2d_16"/>
    </g>
    <g id="ytick_5">
     <g id="line2d_17"/>
    </g>
    <g id="ytick_6">
     <g id="line2d_18"/>
    </g>
    <g id="ytick_7">
     <g id="line2d_19"/>
    </g>
    <g id="ytick_8">
     <g id="line2d_20"/>
    </g>
    <g id="ytick_9">
     <g id="line2d_21"/>
    </g>
    <g id="ytick_10">
     <g id="line2d_22"/>
    </g>
    <g id="ytick_11">
     <g id="line2d_23"/>
    </g>
    <g id="ytick_12">
     <g id="line2d_24"/>
    </g>
    <g id="ytick_13">
     <g id="line2d_25"/>
    </g>
    <g id="ytick_14">
     <g id="line2d_26"/>
    </g>
    <g id="ytick_15">
     <g id="line2d_27"/>
    </g>
    <g id="ytick_16">
     <g id="line2d_28"/>
    </g>
    <g id="text_9">
     <!-- 构建时间 (秒) -->
     <g style="fill: #262626" transform="translate(16.7925 239.554375) rotate(-90) scale(0.12 -0.12)">
      <defs>
       <path id="MicrosoftYaHei-Bold-6784" d="M 75 1709 
Q 550 2447 828 3353 
L 138 3353 
L 138 4091 
L 900 4091 
L 900 5303 
L 1713 5303 
L 1713 4091 
L 2313 4091 
L 2313 3756 
Q 2825 4431 3100 5278 
L 3963 5209 
Q 3850 4903 3719 4616 
L 6056 4616 
Q 6056 3244 6042 2212 
Q 6028 1181 6004 565 
Q 5981 -50 5714 -367 
Q 5447 -684 5051 -725 
Q 4656 -766 3675 -747 
Q 3588 -253 3494 122 
Q 4175 66 4600 66 
Q 4863 66 5023 206 
Q 5184 347 5191 822 
L 4775 609 
L 4644 878 
Q 3147 769 2444 622 
L 2188 1334 
Q 2669 1691 3388 3453 
L 4188 3128 
L 3206 1453 
L 4316 1525 
Q 4106 1928 3875 2347 
L 4519 2684 
Q 4866 2113 5209 1481 
Q 5231 2419 5231 3841 
L 3313 3841 
Q 2991 3297 2594 2822 
Q 2319 3125 2072 3353 
L 1713 3353 
L 1713 2991 
Q 2153 2594 2575 2191 
L 2031 1678 
Q 1872 1906 1713 2116 
L 1713 -822 
L 900 -822 
L 900 1816 
Q 647 1156 288 566 
Q 219 997 75 1709 
z
" transform="scale(0.015625)"/>
       <path id="MicrosoftYaHei-Bold-5efa" d="M 356 -853 
Q 250 -422 94 16 
Q 394 278 619 597 
Q 316 1075 100 1778 
L 744 2059 
Q 872 1666 1019 1363 
Q 1172 1769 1238 2241 
L 300 2241 
L 300 3053 
L 1025 4091 
L 175 4091 
L 175 4853 
L 1988 4853 
L 1988 4134 
L 1163 3003 
L 2000 3003 
L 2000 2228 
Q 1866 1334 1528 628 
Q 2094 91 3475 91 
L 3475 484 
L 2075 484 
L 2075 1053 
L 3475 1053 
L 3475 1391 
L 2288 1391 
L 2288 1966 
L 3475 1966 
L 3475 2297 
L 2375 2297 
L 2375 2841 
L 3475 2841 
L 3475 3203 
L 2050 3203 
L 2050 3841 
L 3475 3841 
L 3475 4203 
L 2375 4203 
L 2375 4816 
L 3475 4816 
L 3475 5316 
L 4275 5316 
L 4275 4816 
L 5863 4816 
L 5863 3841 
L 6244 3841 
L 6244 3203 
L 5863 3203 
L 5863 2297 
L 4275 2297 
L 4275 1966 
L 5863 1966 
L 5863 1391 
L 4275 1391 
L 4275 1053 
L 6075 1053 
L 6075 484 
L 4275 484 
L 4275 94 
L 6319 122 
Q 6206 -247 6113 -666 
L 3506 -666 
Q 2478 -666 1928 -441 
Q 1378 -216 1150 -13 
Q 816 -488 356 -853 
z
M 5125 4203 
L 4275 4203 
L 4275 3841 
L 5125 3841 
L 5125 4203 
z
M 4275 2841 
L 5125 2841 
L 5125 3203 
L 4275 3203 
L 4275 2841 
z
" transform="scale(0.015625)"/>
       <path id="MicrosoftYaHei-Bold-65f6" d="M 3038 4241 
L 4888 4241 
L 4888 5291 
L 5781 5291 
L 5781 4241 
L 6306 4241 
L 6306 3409 
L 5781 3409 
L 5781 316 
Q 5781 -209 5547 -478 
Q 5313 -747 4898 -762 
Q 4484 -778 3669 -778 
Q 3569 -209 3456 134 
Q 4344 109 4431 109 
Q 4888 109 4888 584 
L 4888 3409 
L 3038 3409 
L 3038 4241 
z
M 394 -497 
L 394 4897 
L 2856 4897 
L 2856 -459 
L 2031 -459 
L 2031 -28 
L 1219 -28 
L 1219 -497 
L 394 -497 
z
M 2031 4072 
L 1219 4072 
L 1219 2834 
L 2031 2834 
L 2031 4072 
z
M 1219 797 
L 2031 797 
L 2031 2034 
L 1219 2034 
L 1219 797 
z
M 3588 3072 
Q 4013 2541 4713 1559 
L 3956 1066 
Q 3388 2009 2938 2641 
L 3588 3072 
z
" transform="scale(0.015625)"/>
       <path id="MicrosoftYaHei-Bold-95f4" d="M 1088 5059 
L 1906 5347 
Q 2200 4884 2506 4334 
L 1638 4003 
Q 1356 4597 1088 5059 
z
M 6056 347 
Q 6056 -106 5904 -378 
Q 5753 -650 5422 -736 
Q 5091 -822 3950 -822 
Q 3875 -359 3750 53 
Q 4150 28 4769 28 
Q 5188 28 5188 397 
L 5188 4278 
L 2719 4278 
L 2719 5047 
L 6056 5047 
L 6056 347 
z
M 344 4522 
L 1213 4522 
L 1213 -803 
L 344 -803 
L 344 4522 
z
M 1788 3772 
L 4581 3772 
L 4581 484 
L 2575 484 
L 2575 141 
L 1788 141 
L 1788 3772 
z
M 3794 3072 
L 2575 3072 
L 2575 2478 
L 3794 2478 
L 3794 3072 
z
M 3794 1184 
L 3794 1778 
L 2575 1778 
L 2575 1184 
L 3794 1184 
z
" transform="scale(0.015625)"/>
       <path id="MicrosoftYaHei-Bold-20" transform="scale(0.015625)"/>
       <path id="MicrosoftYaHei-Bold-28" d="M 1606 -1100 
Q 525 97 525 1853 
Q 525 3550 1606 4841 
L 2431 4841 
Q 1406 3497 1406 1853 
Q 1406 216 2438 -1100 
L 1606 -1100 
z
" transform="scale(0.015625)"/>
       <path id="MicrosoftYaHei-Bold-79d2" d="M 2256 -109 
Q 3816 434 4656 1328 
L 3850 1328 
L 3850 5278 
L 4694 5278 
L 4694 1369 
Q 5134 1847 5369 2428 
L 6113 2041 
Q 5119 -28 2688 -853 
Q 2481 -441 2256 -109 
z
M 113 3484 
L 944 3484 
L 944 4169 
Q 588 4134 213 4109 
Q 175 4578 100 4909 
Q 1225 4966 2438 5172 
L 2631 4391 
Q 2222 4319 1775 4259 
L 1775 3484 
L 2588 3484 
L 2588 3022 
Q 2825 3719 2950 4297 
L 3675 4116 
Q 3431 3128 3038 1959 
Q 2644 2122 2300 2234 
Q 2400 2494 2488 2741 
L 1775 2741 
L 1775 2072 
L 1931 2228 
Q 2381 1847 2844 1434 
L 2288 897 
Q 2003 1216 1775 1459 
L 1775 -866 
L 944 -866 
L 944 1513 
Q 716 825 388 203 
Q 294 653 88 1253 
Q 503 1834 838 2741 
L 113 2741 
L 113 3484 
z
M 4806 4066 
L 5444 4372 
Q 5988 3503 6369 2759 
L 5688 2409 
Q 5225 3372 4806 4066 
z
" transform="scale(0.015625)"/>
       <path id="MicrosoftYaHei-Bold-29" d="M 59 -1100 
Q 1097 216 1097 1853 
Q 1097 3484 59 4841 
L 888 4841 
Q 1978 3544 1978 1853 
Q 1978 113 881 -1100 
L 59 -1100 
z
" transform="scale(0.015625)"/>
      </defs>
      <use xlink:href="#MicrosoftYaHei-Bold-6784"/>
      <use xlink:href="#MicrosoftYaHei-Bold-5efa" transform="translate(100 0)"/>
      <use xlink:href="#MicrosoftYaHei-Bold-65f6" transform="translate(200 0)"/>
      <use xlink:href="#MicrosoftYaHei-Bold-95f4" transform="translate(300 0)"/>
      <use xlink:href="#MicrosoftYaHei-Bold-20" transform="translate(400 0)"/>
      <use xlink:href="#MicrosoftYaHei-Bold-28" transform="translate(429.785156 0)"/>
      <use xlink:href="#MicrosoftYaHei-Bold-79d2" transform="translate(468.75 0)"/>
      <use xlink:href="#MicrosoftYaHei-Bold-29" transform="translate(568.75 0)"/>
     </g>
    </g>
   </g>
   <g id="line2d_29">
    <path d="M 73.931323 268.877283 
L 136.09046 220.761319 
L 260.408734 174.356969 
L 322.567871 149.692905 
L 509.045282 40.636705 
" clip-path="url(#pdde9c4394f)" style="fill: none; stroke: #ff0000; stroke-width: 2.5; stroke-linecap: round"/>
    <defs>
     <path id="m3f75fdc31e" d="M 0 4 
C 1.060812 4 2.078319 3.578535 2.828427 2.828427 
C 3.578535 2.078319 4 1.060812 4 0 
C 4 -1.060812 3.578535 -2.078319 2.828427 -2.828427 
C 2.078319 -3.578535 1.060812 -4 0 -4 
C -1.060812 -4 -2.078319 -3.578535 -2.828427 -2.828427 
C -3.578535 -2.078319 -4 -1.060812 -4 0 
C -4 1.060812 -3.578535 2.078319 -2.828427 2.828427 
C -2.078319 3.578535 -1.060812 4 0 4 
z
"/>
    </defs>
    <g clip-path="url(#pdde9c4394f)">
     <use xlink:href="#m3f75fdc31e" x="73.931323" y="268.877283" style="fill: #ff0000"/>
     <use xlink:href="#m3f75fdc31e" x="136.09046" y="220.761319" style="fill: #ff0000"/>
     <use xlink:href="#m3f75fdc31e" x="260.408734" y="174.356969" style="fill: #ff0000"/>
     <use xlink:href="#m3f75fdc31e" x="322.567871" y="149.692905" style="fill: #ff0000"/>
     <use xlink:href="#m3f75fdc31e" x="509.045282" y="40.636705" style="fill: #ff0000"/>
    </g>
   </g>
   <g id="line2d_30">
    <path d="M 73.931323 324.216569 
L 136.09046 365.545795 
L 260.408734 342.592239 
L 322.567871 342.660312 
L 509.045282 347.409336 
" clip-path="url(#pdde9c4394f)" style="fill: none; stroke: #0000ff; stroke-width: 2.5; stroke-linecap: round"/>
    <defs>
     <path id="md24eea63e1" d="M 0 4 
C 1.060812 4 2.078319 3.578535 2.828427 2.828427 
C 3.578535 2.078319 4 1.060812 4 0 
C 4 -1.060812 3.578535 -2.078319 2.828427 -2.828427 
C 2.078319 -3.578535 1.060812 -4 0 -4 
C -1.060812 -4 -2.078319 -3.578535 -2.828427 -2.828427 
C -3.578535 -2.078319 -4 -1.060812 -4 0 
C -4 1.060812 -3.578535 2.078319 -2.828427 2.828427 
C -2.078319 3.578535 -1.060812 4 0 4 
z
"/>
    </defs>
    <g clip-path="url(#pdde9c4394f)">
     <use xlink:href="#md24eea63e1" x="73.931323" y="324.216569" style="fill: #0000ff"/>
     <use xlink:href="#md24eea63e1" x="136.09046" y="365.545795" style="fill: #0000ff"/>
     <use xlink:href="#md24eea63e1" x="260.408734" y="342.592239" style="fill: #0000ff"/>
     <use xlink:href="#md24eea63e1" x="322.567871" y="342.660312" style="fill: #0000ff"/>
     <use xlink:href="#md24eea63e1" x="509.045282" y="347.409336" style="fill: #0000ff"/>
    </g>
   </g>
   <g id="patch_3">
    <path d="M 52.175625 381.79125 
L 52.175625 24.39125 
" style="fill: none"/>
   </g>
   <g id="patch_4">
    <path d="M 530.80098 381.79125 
L 530.80098 24.39125 
" style="fill: none"/>
   </g>
   <g id="patch_5">
    <path d="M 52.175625 381.79125 
L 530.80098 381.79125 
" style="fill: none"/>
   </g>
   <g id="patch_6">
    <path d="M 52.175625 24.39125 
L 530.80098 24.39125 
" style="fill: none"/>
   </g>
   <g id="text_10">
    <!-- 图构建性能对比 -->
    <g style="fill: #262626" transform="translate(242.488303 18.39125) scale(0.14 -0.14)">
     <defs>
      <path id="MicrosoftYaHei-Bold-56fe" d="M 369 -841 
L 369 5072 
L 6019 5072 
L 6019 -834 
L 5156 -834 
L 5156 -591 
L 1231 -591 
L 1231 -841 
L 369 -841 
z
M 4875 3978 
L 4875 3466 
Q 4547 3022 4006 2678 
Q 4513 2541 5156 2463 
L 5156 4316 
L 3256 4316 
Q 3141 4144 3009 3978 
L 4875 3978 
z
M 2394 4316 
L 1231 4316 
L 1231 3231 
Q 2016 3747 2394 4316 
z
M 3228 2959 
Q 3666 3163 3919 3416 
L 2575 3416 
Q 2828 3156 3228 2959 
z
M 1644 2747 
Q 1481 2925 1231 3147 
L 1231 2400 
Q 1950 2522 2500 2688 
Q 2266 2863 2078 3063 
Q 1872 2900 1644 2747 
z
M 1669 1303 
Q 3319 1084 4775 841 
L 4600 166 
L 5156 166 
L 5156 2388 
Q 5019 2159 4825 1822 
Q 3897 1978 3219 2275 
Q 2872 2134 2472 2019 
Q 3509 1888 4500 1722 
L 4375 1128 
Q 3344 1309 2063 1484 
L 2159 1934 
Q 1856 1859 1525 1797 
Q 1409 2059 1231 2347 
L 1231 166 
L 4569 166 
Q 3297 425 1494 647 
L 1669 1303 
z
" transform="scale(0.015625)"/>
      <path id="MicrosoftYaHei-Bold-6027" d="M 2250 216 
L 3975 216 
L 3975 1378 
L 2563 1378 
L 2563 2191 
L 3975 2191 
L 3975 3303 
L 3213 3303 
Q 3075 2734 2913 2272 
Q 2538 2491 2175 2684 
Q 2563 3684 2738 4947 
L 3506 4891 
Q 3447 4484 3381 4116 
L 3975 4116 
L 3975 5316 
L 4825 5316 
L 4825 4116 
L 6125 4116 
L 6125 3303 
L 4825 3303 
L 4825 2191 
L 6100 2191 
L 6100 1378 
L 4825 1378 
L 4825 216 
L 6313 216 
L 6313 -597 
L 2250 -597 
L 2250 216 
z
M 1788 5316 
L 1788 4456 
Q 2125 4316 2494 4134 
L 2175 3453 
L 1788 3713 
L 1788 -841 
L 950 -841 
L 950 5316 
L 1788 5316 
z
M 269 4103 
L 800 4041 
Q 719 3009 619 2178 
Q 350 2284 106 2316 
Q 225 3284 269 4103 
z
" transform="scale(0.015625)"/>
      <path id="MicrosoftYaHei-Bold-80fd" d="M 2644 4797 
Q 3100 4172 3569 3447 
Q 3188 3222 2906 3066 
L 2731 3369 
L 319 3197 
L 100 3897 
Q 519 4116 1331 5353 
L 2125 5053 
L 1213 3947 
L 2353 3994 
Q 2200 4238 2044 4472 
L 2644 4797 
z
M 5513 3916 
Q 5981 3697 6288 3597 
Q 6200 3228 6114 2942 
Q 6028 2656 5798 2520 
Q 5569 2384 5200 2384 
L 4556 2384 
Q 3594 2384 3588 3322 
L 3588 5291 
L 4381 5291 
L 4381 4347 
Q 5153 4700 5681 5003 
L 6231 4366 
Q 5553 4056 4381 3616 
L 4381 3422 
Q 4381 3072 4800 3072 
L 5000 3072 
Q 5341 3072 5392 3269 
Q 5444 3466 5513 3916 
z
M 1213 -797 
L 431 -797 
L 431 2978 
L 3106 2978 
L 3106 41 
Q 3106 -325 2972 -525 
Q 2838 -725 2566 -759 
Q 2294 -794 1681 -784 
Q 1594 -422 1481 -41 
Q 1791 -59 1969 -59 
Q 2213 -59 2269 28 
Q 2325 116 2325 228 
L 2325 378 
L 1213 378 
L 1213 -797 
z
M 2325 2303 
L 1213 2303 
L 1213 1947 
L 2325 1947 
L 2325 2303 
z
M 1213 984 
L 2325 984 
L 2325 1341 
L 1213 1341 
L 1213 984 
z
M 5531 953 
Q 5913 797 6313 647 
Q 6194 -78 6081 -287 
Q 5969 -497 5750 -605 
Q 5531 -713 5206 -716 
L 4550 -716 
Q 3588 -716 3588 228 
L 3588 2216 
L 4381 2216 
L 4381 1438 
Q 5072 1781 5675 2147 
L 6225 1491 
Q 5372 1084 4381 672 
L 4381 353 
Q 4381 -28 4738 -28 
L 5000 -28 
Q 5275 -28 5365 90 
Q 5456 209 5531 953 
z
" transform="scale(0.015625)"/>
      <path id="MicrosoftYaHei-Bold-5bf9" d="M 3050 4234 
L 4850 4234 
L 4850 5309 
L 5744 5309 
L 5744 4234 
L 6319 4234 
L 6319 3409 
L 5744 3409 
L 5744 216 
Q 5744 -250 5539 -490 
Q 5334 -731 4987 -754 
Q 4641 -778 3656 -778 
Q 3594 -359 3450 147 
Q 3931 109 4409 109 
Q 4850 109 4850 516 
L 4850 3409 
L 3050 3409 
L 3050 4234 
z
M 863 3772 
L 1691 2509 
Q 1934 3206 2025 4016 
L 188 4016 
L 188 4834 
L 2900 4834 
L 2900 4028 
Q 2709 2722 2247 1669 
L 3169 278 
L 2394 -228 
L 1781 778 
Q 1269 -47 550 -684 
Q 369 -316 88 153 
Q 816 772 1278 1594 
L 181 3341 
L 863 3772 
z
M 3463 3047 
Q 4069 2278 4588 1528 
L 3844 1041 
Q 3375 1841 2813 2609 
L 3463 3047 
z
" transform="scale(0.015625)"/>
      <path id="MicrosoftYaHei-Bold-6bd4" d="M 5481 4441 
L 6294 3803 
Q 5234 2791 4119 1894 
L 4119 547 
Q 4119 153 4438 153 
L 4875 153 
Q 5119 153 5197 325 
Q 5275 497 5363 1597 
Q 5856 1409 6294 1278 
Q 6231 688 6131 248 
Q 6031 -191 5900 -358 
Q 5769 -525 5511 -617 
Q 5253 -709 4881 -709 
L 4094 -709 
Q 3194 -709 3194 247 
L 3194 5316 
L 4119 5316 
L 4119 3009 
Q 4797 3656 5481 4441 
z
M 1419 5241 
L 1419 3453 
L 2850 3453 
L 2850 2591 
L 1419 2591 
L 1419 372 
L 2869 866 
Q 2856 372 2888 -78 
Q 1500 -503 725 -922 
L 275 -184 
Q 494 -16 494 366 
L 494 5241 
L 1419 5241 
z
" transform="scale(0.015625)"/>
     </defs>
     <use xlink:href="#MicrosoftYaHei-Bold-56fe"/>
     <use xlink:href="#MicrosoftYaHei-Bold-6784" transform="translate(100 0)"/>
     <use xlink:href="#MicrosoftYaHei-Bold-5efa" transform="translate(200 0)"/>
     <use xlink:href="#MicrosoftYaHei-Bold-6027" transform="translate(300 0)"/>
     <use xlink:href="#MicrosoftYaHei-Bold-80fd" transform="translate(400 0)"/>
     <use xlink:href="#MicrosoftYaHei-Bold-5bf9" transform="translate(500 0)"/>
     <use xlink:href="#MicrosoftYaHei-Bold-6bd4" transform="translate(600 0)"/>
    </g>
   </g>
   <g id="legend_1">
    <g id="line2d_31">
     <path d="M 62.075625 39.234375 
L 73.075625 39.234375 
L 84.075625 39.234375 
" style="fill: none; stroke: #ff0000; stroke-width: 2.5; stroke-linecap: round"/>
     <g>
      <use xlink:href="#m3f75fdc31e" x="73.075625" y="39.234375" style="fill: #ff0000"/>
     </g>
    </g>
    <g id="text_11">
     <!-- 标准图构建 -->
     <g style="fill: #262626" transform="translate(92.875625 43.084375) scale(0.11 -0.11)">
      <defs>
       <path id="MicrosoftYaHei-6807" d="M 75 1409 
Q 769 2478 1025 3647 
L 119 3647 
L 119 4072 
L 1069 4072 
L 1069 5297 
L 1506 5297 
L 1506 4072 
L 2356 4072 
L 2356 3647 
L 1506 3647 
L 1506 2541 
L 1775 2822 
Q 2175 2478 2481 2159 
L 2150 1816 
Q 1850 2156 1506 2503 
L 1506 -797 
L 1069 -797 
L 1069 2588 
Q 738 1513 281 859 
Q 194 1128 75 1409 
z
M 2350 3097 
L 6250 3097 
L 6250 2659 
L 4525 2659 
L 4525 47 
Q 4525 -734 3806 -734 
Q 3469 -741 2975 -728 
Q 2944 -503 2888 -209 
Q 3319 -259 3675 -259 
Q 4050 -259 4050 203 
L 4050 2659 
L 2350 2659 
L 2350 3097 
z
M 2638 4928 
L 5963 4928 
L 5963 4491 
L 2638 4491 
L 2638 4928 
z
M 4938 1853 
L 5381 2066 
Q 5975 928 6369 72 
L 5869 -147 
Q 5463 822 4938 1853 
z
M 2931 2066 
L 3400 1878 
Q 2888 734 2381 -153 
Q 2188 -41 1925 66 
Q 2425 872 2931 2066 
z
" transform="scale(0.015625)"/>
       <path id="MicrosoftYaHei-51c6" d="M 1413 2766 
Q 2313 3866 2869 5334 
L 3331 5172 
Q 3128 4694 2906 4253 
L 6194 4253 
L 6194 3822 
L 4675 3822 
L 4675 2891 
L 6025 2891 
L 6025 2459 
L 4675 2459 
L 4675 1528 
L 6038 1528 
L 6038 1097 
L 4675 1097 
L 4675 78 
L 6275 78 
L 6275 -341 
L 2769 -341 
L 2769 -841 
L 2281 -841 
L 2281 3131 
Q 2034 2738 1769 2384 
Q 1631 2578 1413 2766 
z
M 2769 78 
L 4188 78 
L 4188 1097 
L 2769 1097 
L 2769 78 
z
M 1081 2422 
Q 1325 2291 1556 2209 
Q 1113 916 681 -372 
L 169 -141 
Q 650 1003 1081 2422 
z
M 2769 1528 
L 4188 1528 
L 4188 2459 
L 2769 2459 
L 2769 1528 
z
M 2769 2891 
L 4188 2891 
L 4188 3822 
L 2769 3822 
L 2769 2891 
z
M 531 4991 
Q 1050 4384 1581 3709 
Q 1538 3678 1150 3341 
Q 681 3997 138 4672 
L 531 4991 
z
M 3919 5116 
L 4325 5372 
Q 4569 5072 4881 4622 
L 4450 4334 
Q 4156 4784 3919 5116 
z
" transform="scale(0.015625)"/>
       <path id="MicrosoftYaHei-56fe" d="M 431 5072 
L 5944 5072 
L 5944 -809 
L 5475 -809 
L 5475 -509 
L 900 -509 
L 900 -809 
L 431 -809 
L 431 5072 
z
M 5475 4622 
L 900 4622 
L 900 -59 
L 5475 -59 
L 5475 4622 
z
M 1113 3091 
Q 1969 3709 2519 4547 
L 2931 4353 
Q 2816 4181 2681 4016 
L 4894 4016 
L 4894 3647 
Q 4434 3091 3722 2644 
Q 4381 2422 5338 2297 
Q 5194 2016 5131 1828 
Q 4022 2081 3256 2400 
Q 2491 2056 1225 1728 
Q 1138 1934 1013 2128 
Q 2109 2353 2825 2644 
Q 2384 2947 2066 3341 
Q 1769 3056 1419 2784 
Q 1294 2916 1113 3091 
z
M 1563 672 
L 1694 1103 
Q 3256 897 4700 622 
L 4531 147 
Q 3150 453 1563 672 
z
M 4275 3628 
L 2347 3628 
Q 2338 3616 2328 3606 
Q 2691 3141 3244 2841 
Q 3891 3188 4275 3628 
z
M 2219 1503 
L 2344 1922 
Q 3263 1784 4275 1609 
L 4144 1172 
Q 3119 1378 2219 1503 
z
" transform="scale(0.015625)"/>
       <path id="MicrosoftYaHei-6784" d="M 2138 3059 
Q 2838 4047 3256 5309 
L 3738 5153 
Q 3556 4722 3388 4347 
L 6081 4347 
Q 5994 1153 5956 397 
Q 5925 -259 5656 -503 
Q 5400 -747 4731 -747 
Q 4238 -747 3700 -716 
Q 3663 -466 3594 -166 
Q 4213 -234 4713 -247 
Q 5144 -253 5294 -97 
Q 5450 34 5469 472 
Q 5513 1316 5575 3891 
L 3169 3891 
Q 2838 3241 2525 2797 
Q 2369 2916 2138 3059 
z
M 81 1359 
Q 731 2372 1000 3578 
L 125 3578 
L 125 3997 
L 1006 3997 
L 1006 5234 
L 1438 5234 
L 1438 3997 
L 2250 3997 
L 2250 3578 
L 1438 3578 
L 1438 2734 
L 1613 2916 
Q 2038 2528 2494 2091 
L 2163 1747 
Q 1775 2191 1438 2516 
L 1438 -834 
L 1006 -834 
L 1006 2384 
Q 700 1409 281 809 
Q 200 1078 81 1359 
z
M 3925 2253 
L 4306 2453 
Q 4763 1666 5250 734 
L 4806 497 
Q 4731 666 4650 834 
Q 3838 784 3050 722 
Q 2856 703 2500 628 
L 2288 1078 
Q 2488 1216 2625 1416 
Q 3138 2222 3638 3397 
L 4106 3203 
Q 3738 2391 2981 1172 
Q 3881 1197 4463 1222 
Q 4213 1741 3925 2253 
z
" transform="scale(0.015625)"/>
       <path id="MicrosoftYaHei-5efa" d="M 2075 1009 
L 3675 1009 
L 3675 1553 
L 2288 1553 
L 2288 1928 
L 3675 1928 
L 3675 2472 
L 2375 2472 
L 2375 2847 
L 3675 2847 
L 3675 3391 
L 2050 3391 
L 2050 3778 
L 3675 3778 
L 3675 4322 
L 2375 4322 
L 2375 4697 
L 3675 4697 
L 3675 5309 
L 4138 5309 
L 4138 4697 
L 5588 4697 
L 5588 3778 
L 6244 3778 
L 6244 3391 
L 5588 3391 
L 5588 2303 
L 5138 2303 
L 5138 2472 
L 4138 2472 
L 4138 1928 
L 5713 1928 
L 5713 1553 
L 4138 1553 
L 4138 1009 
L 6000 1009 
L 6000 634 
L 4138 634 
L 4138 -9 
L 3675 -9 
L 3675 634 
L 2075 634 
L 2075 1009 
z
M 600 2066 
Q 788 1303 1125 813 
Q 1459 1500 1544 2397 
L 294 2397 
L 294 2853 
L 1444 4272 
L 169 4272 
L 169 4697 
L 2019 4697 
L 2019 4272 
L 844 2822 
L 2013 2822 
L 2013 2453 
Q 1897 1294 1447 444 
Q 2128 -147 3563 -153 
Q 4750 -178 6319 -122 
Q 6213 -378 6113 -616 
Q 4681 -609 3344 -603 
Q 1950 -603 1206 47 
Q 853 -466 350 -847 
Q 250 -666 94 -441 
Q 563 -84 881 391 
Q 463 922 188 1909 
L 600 2066 
z
M 4138 2847 
L 5138 2847 
L 5138 3391 
L 4138 3391 
L 4138 2847 
z
M 5138 4322 
L 4138 4322 
L 4138 3778 
L 5138 3778 
L 5138 4322 
z
" transform="scale(0.015625)"/>
      </defs>
      <use xlink:href="#MicrosoftYaHei-6807"/>
      <use xlink:href="#MicrosoftYaHei-51c6" transform="translate(100 0)"/>
      <use xlink:href="#MicrosoftYaHei-56fe" transform="translate(200 0)"/>
      <use xlink:href="#MicrosoftYaHei-6784" transform="translate(300 0)"/>
      <use xlink:href="#MicrosoftYaHei-5efa" transform="translate(400 0)"/>
     </g>
    </g>
    <g id="line2d_32">
     <path d="M 62.075625 56.262031 
L 73.075625 56.262031 
L 84.075625 56.262031 
" style="fill: none; stroke: #0000ff; stroke-width: 2.5; stroke-linecap: round"/>
     <g>
      <use xlink:href="#md24eea63e1" x="73.075625" y="56.262031" style="fill: #0000ff"/>
     </g>
    </g>
    <g id="text_12">
     <!-- 缓存图构建 -->
     <g style="fill: #262626" transform="translate(92.875625 60.112031) scale(0.11 -0.11)">
      <defs>
       <path id="MicrosoftYaHei-7f13" d="M 2150 2566 
L 2981 2566 
Q 3006 2819 3016 3091 
L 2275 3091 
L 2275 3478 
L 4784 3478 
Q 5081 3959 5363 4516 
L 5800 4266 
Q 5478 3778 5263 3478 
L 6138 3478 
L 6138 3091 
L 3447 3091 
Q 3441 2822 3416 2566 
L 6238 2566 
L 6238 2178 
L 3369 2178 
Q 3328 1922 3269 1678 
L 5663 1678 
L 5663 1297 
Q 5244 616 4650 128 
Q 5347 -241 6300 -322 
Q 6175 -572 6069 -791 
Q 5006 -641 4259 -156 
Q 3544 -625 2613 -859 
Q 2506 -666 2375 -447 
Q 3231 -250 3881 122 
Q 3409 528 3097 1100 
Q 2741 106 2013 -603 
Q 1938 -459 1744 -197 
Q 2675 713 2928 2178 
L 2150 2178 
L 2150 2566 
z
M 863 1641 
Q 1481 1716 2100 1803 
Q 2081 1609 2075 1359 
Q 1069 1241 350 1122 
L 244 1566 
Q 625 1975 1184 2934 
Q 503 2900 225 2853 
L 138 3284 
Q 606 3922 1138 5284 
L 1625 5134 
Q 1119 4091 663 3303 
Q 1166 3313 1403 3319 
Q 1619 3706 1856 4166 
L 2294 3966 
Q 1538 2622 863 1641 
z
M 2325 4434 
Q 2288 4647 2238 4878 
Q 4194 4928 5994 5109 
L 6081 4659 
Q 4725 4534 2325 4434 
z
M 5156 1291 
L 3416 1291 
Q 3756 734 4263 369 
Q 4794 756 5156 1291 
z
M 181 259 
Q 894 422 2050 691 
Q 2031 553 2031 228 
Q 994 -16 300 -216 
L 181 259 
z
M 3769 4328 
L 4163 4478 
Q 4338 4153 4506 3703 
L 4081 3547 
Q 3963 3916 3769 4328 
z
M 2519 4203 
L 2881 4397 
Q 3088 4116 3306 3722 
L 2906 3503 
Q 2706 3916 2519 4203 
z
" transform="scale(0.015625)"/>
       <path id="MicrosoftYaHei-5b58" d="M 169 4641 
L 1925 4641 
Q 2053 4991 2163 5359 
L 2675 5228 
Q 2578 4928 2472 4641 
L 6275 4641 
L 6275 4178 
L 2291 4178 
Q 1963 3384 1563 2709 
L 1563 -797 
L 1081 -797 
L 1081 1984 
Q 747 1528 369 1141 
Q 244 1359 69 1591 
Q 1113 2688 1744 4178 
L 169 4178 
L 169 4641 
z
M 1838 1791 
L 3994 1791 
L 3994 2203 
Q 4656 2628 5156 3047 
L 2256 3047 
L 2256 3503 
L 5869 3503 
L 5869 2997 
Q 5231 2491 4475 1978 
L 4475 1791 
L 6319 1791 
L 6319 1334 
L 4475 1334 
L 4475 -72 
Q 4475 -784 3763 -784 
Q 3425 -784 2856 -766 
Q 2825 -528 2775 -259 
Q 3375 -322 3663 -322 
Q 3994 -322 3994 9 
L 3994 1334 
L 1838 1334 
L 1838 1791 
z
" transform="scale(0.015625)"/>
      </defs>
      <use xlink:href="#MicrosoftYaHei-7f13"/>
      <use xlink:href="#MicrosoftYaHei-5b58" transform="translate(100 0)"/>
      <use xlink:href="#MicrosoftYaHei-56fe" transform="translate(200 0)"/>
      <use xlink:href="#MicrosoftYaHei-6784" transform="translate(300 0)"/>
      <use xlink:href="#MicrosoftYaHei-5efa" transform="translate(400 0)"/>
     </g>
    </g>
   </g>
  </g>
  <g id="axes_2">
   <g id="patch_7">
    <path d="M 585.54098 381.79125 
L 1064.166335 381.79125 
L 1064.166335 24.39125 
L 585.54098 24.39125 
z
" style="fill: #ffffff"/>
   </g>
   <g id="matplotlib.axis_3">
    <g id="xtick_6">
     <g id="line2d_33">
      <path d="M 643.556175 381.79125 
L 643.556175 24.39125 
" clip-path="url(#p525e34e6dd)" style="fill: none; stroke: #ffffff; stroke-linecap: round"/>
     </g>
     <g id="line2d_34"/>
     <g id="text_13">
      <!-- 64 -->
      <g style="fill: #262626" transform="translate(637.692112 396.785) scale(0.1 -0.1)">
       <defs>
        <path id="MicrosoftYaHei-36" d="M 3181 4219 
Q 2803 4413 2391 4413 
Q 1763 4413 1381 3866 
Q 1000 3319 994 2372 
L 1009 2372 
Q 1353 3038 2106 3038 
Q 2734 3038 3109 2628 
Q 3484 2219 3484 1541 
Q 3484 831 3051 375 
Q 2619 -81 1947 -81 
Q 1209 -81 789 495 
Q 369 1072 369 2131 
Q 369 3413 920 4167 
Q 1472 4922 2372 4922 
Q 2888 4922 3181 4781 
L 3181 4219 
z
M 1031 1584 
Q 1031 1106 1286 765 
Q 1541 425 1963 425 
Q 2363 425 2613 719 
Q 2863 1013 2863 1475 
Q 2863 1975 2627 2253 
Q 2391 2531 1956 2531 
Q 1544 2531 1287 2250 
Q 1031 1969 1031 1584 
z
" transform="scale(0.015625)"/>
       </defs>
       <use xlink:href="#MicrosoftYaHei-36"/>
       <use xlink:href="#MicrosoftYaHei-34" transform="translate(58.642578 0)"/>
      </g>
     </g>
    </g>
    <g id="xtick_7">
     <g id="line2d_35">
      <path d="M 734.204916 381.79125 
L 734.204916 24.39125 
" clip-path="url(#p525e34e6dd)" style="fill: none; stroke: #ffffff; stroke-linecap: round"/>
     </g>
     <g id="line2d_36"/>
     <g id="text_14">
      <!-- 128 -->
      <g style="fill: #262626" transform="translate(725.408822 396.785) scale(0.1 -0.1)">
       <defs>
        <path id="MicrosoftYaHei-38" d="M 306 1350 
Q 306 1769 556 2122 
Q 806 2475 1200 2625 
Q 884 2803 700 3081 
Q 516 3359 516 3684 
Q 516 4028 692 4312 
Q 869 4597 1183 4759 
Q 1497 4922 1875 4922 
Q 2256 4922 2572 4761 
Q 2888 4600 3063 4315 
Q 3238 4031 3238 3684 
Q 3238 3366 3058 3086 
Q 2878 2806 2559 2625 
Q 2953 2472 3200 2119 
Q 3447 1766 3447 1350 
Q 3447 938 3250 611 
Q 3053 284 2690 103 
Q 2328 -78 1875 -78 
Q 1425 -78 1065 103 
Q 706 284 506 612 
Q 306 941 306 1350 
z
M 906 1378 
Q 906 947 1172 687 
Q 1438 428 1878 428 
Q 2309 428 2582 692 
Q 2856 956 2856 1378 
Q 2856 1778 2579 2051 
Q 2303 2325 1878 2325 
Q 1456 2325 1181 2058 
Q 906 1791 906 1378 
z
M 1081 3634 
Q 1081 3309 1312 3076 
Q 1544 2844 1878 2844 
Q 2206 2844 2445 3078 
Q 2684 3313 2684 3634 
Q 2684 3963 2454 4191 
Q 2225 4419 1878 4419 
Q 1534 4419 1307 4195 
Q 1081 3972 1081 3634 
z
" transform="scale(0.015625)"/>
       </defs>
       <use xlink:href="#MicrosoftYaHei-31"/>
       <use xlink:href="#MicrosoftYaHei-32" transform="translate(58.642578 0)"/>
       <use xlink:href="#MicrosoftYaHei-38" transform="translate(117.285156 0)"/>
      </g>
     </g>
    </g>
    <g id="xtick_8">
     <g id="line2d_37">
      <path d="M 824.853658 381.79125 
L 824.853658 24.39125 
" clip-path="url(#p525e34e6dd)" style="fill: none; stroke: #ffffff; stroke-linecap: round"/>
     </g>
     <g id="line2d_38"/>
     <g id="text_15">
      <!-- 256 -->
      <g style="fill: #262626" transform="translate(816.057564 396.785) scale(0.1 -0.1)">
       <use xlink:href="#MicrosoftYaHei-32"/>
       <use xlink:href="#MicrosoftYaHei-35" transform="translate(58.642578 0)"/>
       <use xlink:href="#MicrosoftYaHei-36" transform="translate(117.285156 0)"/>
      </g>
     </g>
    </g>
    <g id="xtick_9">
     <g id="line2d_39">
      <path d="M 915.502399 381.79125 
L 915.502399 24.39125 
" clip-path="url(#p525e34e6dd)" style="fill: none; stroke: #ffffff; stroke-linecap: round"/>
     </g>
     <g id="line2d_40"/>
     <g id="text_16">
      <!-- 320 -->
      <g style="fill: #262626" transform="translate(906.706305 396.785) scale(0.1 -0.1)">
       <use xlink:href="#MicrosoftYaHei-33"/>
       <use xlink:href="#MicrosoftYaHei-32" transform="translate(58.642578 0)"/>
       <use xlink:href="#MicrosoftYaHei-30" transform="translate(117.285156 0)"/>
      </g>
     </g>
    </g>
    <g id="xtick_10">
     <g id="line2d_41">
      <path d="M 1006.151141 381.79125 
L 1006.151141 24.39125 
" clip-path="url(#p525e34e6dd)" style="fill: none; stroke: #ffffff; stroke-linecap: round"/>
     </g>
     <g id="line2d_42"/>
     <g id="text_17">
      <!-- 512 -->
      <g style="fill: #262626" transform="translate(997.355047 396.785) scale(0.1 -0.1)">
       <use xlink:href="#MicrosoftYaHei-35"/>
       <use xlink:href="#MicrosoftYaHei-31" transform="translate(58.642578 0)"/>
       <use xlink:href="#MicrosoftYaHei-32" transform="translate(117.285156 0)"/>
      </g>
     </g>
    </g>
    <g id="text_18">
     <!-- 序列长度 -->
     <g style="fill: #262626" transform="translate(800.853658 412.863437) scale(0.12 -0.12)">
      <use xlink:href="#MicrosoftYaHei-Bold-5e8f"/>
      <use xlink:href="#MicrosoftYaHei-Bold-5217" transform="translate(100 0)"/>
      <use xlink:href="#MicrosoftYaHei-Bold-957f" transform="translate(200 0)"/>
      <use xlink:href="#MicrosoftYaHei-Bold-5ea6" transform="translate(300 0)"/>
     </g>
    </g>
   </g>
   <g id="matplotlib.axis_4">
    <g id="ytick_17">
     <g id="line2d_43">
      <path d="M 585.54098 381.79125 
L 1064.166335 381.79125 
" clip-path="url(#p525e34e6dd)" style="fill: none; stroke-dasharray: 3.7,1.6; stroke-dashoffset: 0; stroke: #ffffff; stroke-opacity: 0.3"/>
     </g>
     <g id="line2d_44"/>
     <g id="text_19">
      <!-- 0.0 -->
      <g style="fill: #262626" transform="translate(564.405043 385.788125) scale(0.1 -0.1)">
       <defs>
        <path id="MicrosoftYaHei-2e" d="M 372 322 
Q 372 491 487 606 
Q 603 722 775 722 
Q 950 722 1065 605 
Q 1181 488 1181 322 
Q 1181 159 1065 42 
Q 950 -75 772 -75 
Q 600 -75 486 42 
Q 372 159 372 322 
z
" transform="scale(0.015625)"/>
       </defs>
       <use xlink:href="#MicrosoftYaHei-30"/>
       <use xlink:href="#MicrosoftYaHei-2e" transform="translate(58.642578 0)"/>
       <use xlink:href="#MicrosoftYaHei-30" transform="translate(82.714844 0)"/>
      </g>
     </g>
    </g>
    <g id="ytick_18">
     <g id="line2d_45">
      <path d="M 585.54098 339.632185 
L 1064.166335 339.632185 
" clip-path="url(#p525e34e6dd)" style="fill: none; stroke-dasharray: 3.7,1.6; stroke-dashoffset: 0; stroke: #ffffff; stroke-opacity: 0.3"/>
     </g>
     <g id="line2d_46"/>
     <g id="text_20">
      <!-- 2.5 -->
      <g style="fill: #262626" transform="translate(564.405043 343.62906) scale(0.1 -0.1)">
       <use xlink:href="#MicrosoftYaHei-32"/>
       <use xlink:href="#MicrosoftYaHei-2e" transform="translate(58.642578 0)"/>
       <use xlink:href="#MicrosoftYaHei-35" transform="translate(82.714844 0)"/>
      </g>
     </g>
    </g>
    <g id="ytick_19">
     <g id="line2d_47">
      <path d="M 585.54098 297.473119 
L 1064.166335 297.473119 
" clip-path="url(#p525e34e6dd)" style="fill: none; stroke-dasharray: 3.7,1.6; stroke-dashoffset: 0; stroke: #ffffff; stroke-opacity: 0.3"/>
     </g>
     <g id="line2d_48"/>
     <g id="text_21">
      <!-- 5.0 -->
      <g style="fill: #262626" transform="translate(564.405043 301.469994) scale(0.1 -0.1)">
       <use xlink:href="#MicrosoftYaHei-35"/>
       <use xlink:href="#MicrosoftYaHei-2e" transform="translate(58.642578 0)"/>
       <use xlink:href="#MicrosoftYaHei-30" transform="translate(82.714844 0)"/>
      </g>
     </g>
    </g>
    <g id="ytick_20">
     <g id="line2d_49">
      <path d="M 585.54098 255.314054 
L 1064.166335 255.314054 
" clip-path="url(#p525e34e6dd)" style="fill: none; stroke-dasharray: 3.7,1.6; stroke-dashoffset: 0; stroke: #ffffff; stroke-opacity: 0.3"/>
     </g>
     <g id="line2d_50"/>
     <g id="text_22">
      <!-- 7.5 -->
      <g style="fill: #262626" transform="translate(564.405043 259.310929) scale(0.1 -0.1)">
       <defs>
        <path id="MicrosoftYaHei-37" d="M 3422 4463 
Q 2659 3131 2223 1998 
Q 1788 866 1684 0 
L 1047 0 
Q 1163 853 1594 1947 
Q 2025 3041 2747 4300 
L 347 4300 
L 347 4841 
L 3422 4841 
L 3422 4463 
z
" transform="scale(0.015625)"/>
       </defs>
       <use xlink:href="#MicrosoftYaHei-37"/>
       <use xlink:href="#MicrosoftYaHei-2e" transform="translate(58.642578 0)"/>
       <use xlink:href="#MicrosoftYaHei-35" transform="translate(82.714844 0)"/>
      </g>
     </g>
    </g>
    <g id="ytick_21">
     <g id="line2d_51">
      <path d="M 585.54098 213.154988 
L 1064.166335 213.154988 
" clip-path="url(#p525e34e6dd)" style="fill: none; stroke-dasharray: 3.7,1.6; stroke-dashoffset: 0; stroke: #ffffff; stroke-opacity: 0.3"/>
     </g>
     <g id="line2d_52"/>
     <g id="text_23">
      <!-- 10.0 -->
      <g style="fill: #262626" transform="translate(558.54098 217.151863) scale(0.1 -0.1)">
       <use xlink:href="#MicrosoftYaHei-31"/>
       <use xlink:href="#MicrosoftYaHei-30" transform="translate(58.642578 0)"/>
       <use xlink:href="#MicrosoftYaHei-2e" transform="translate(117.285156 0)"/>
       <use xlink:href="#MicrosoftYaHei-30" transform="translate(141.357422 0)"/>
      </g>
     </g>
    </g>
    <g id="ytick_22">
     <g id="line2d_53">
      <path d="M 585.54098 170.995923 
L 1064.166335 170.995923 
" clip-path="url(#p525e34e6dd)" style="fill: none; stroke-dasharray: 3.7,1.6; stroke-dashoffset: 0; stroke: #ffffff; stroke-opacity: 0.3"/>
     </g>
     <g id="line2d_54"/>
     <g id="text_24">
      <!-- 12.5 -->
      <g style="fill: #262626" transform="translate(558.54098 174.992798) scale(0.1 -0.1)">
       <use xlink:href="#MicrosoftYaHei-31"/>
       <use xlink:href="#MicrosoftYaHei-32" transform="translate(58.642578 0)"/>
       <use xlink:href="#MicrosoftYaHei-2e" transform="translate(117.285156 0)"/>
       <use xlink:href="#MicrosoftYaHei-35" transform="translate(141.357422 0)"/>
      </g>
     </g>
    </g>
    <g id="ytick_23">
     <g id="line2d_55">
      <path d="M 585.54098 128.836857 
L 1064.166335 128.836857 
" clip-path="url(#p525e34e6dd)" style="fill: none; stroke-dasharray: 3.7,1.6; stroke-dashoffset: 0; stroke: #ffffff; stroke-opacity: 0.3"/>
     </g>
     <g id="line2d_56"/>
     <g id="text_25">
      <!-- 15.0 -->
      <g style="fill: #262626" transform="translate(558.54098 132.833732) scale(0.1 -0.1)">
       <use xlink:href="#MicrosoftYaHei-31"/>
       <use xlink:href="#MicrosoftYaHei-35" transform="translate(58.642578 0)"/>
       <use xlink:href="#MicrosoftYaHei-2e" transform="translate(117.285156 0)"/>
       <use xlink:href="#MicrosoftYaHei-30" transform="translate(141.357422 0)"/>
      </g>
     </g>
    </g>
    <g id="ytick_24">
     <g id="line2d_57">
      <path d="M 585.54098 86.677792 
L 1064.166335 86.677792 
" clip-path="url(#p525e34e6dd)" style="fill: none; stroke-dasharray: 3.7,1.6; stroke-dashoffset: 0; stroke: #ffffff; stroke-opacity: 0.3"/>
     </g>
     <g id="line2d_58"/>
     <g id="text_26">
      <!-- 17.5 -->
      <g style="fill: #262626" transform="translate(558.54098 90.674667) scale(0.1 -0.1)">
       <use xlink:href="#MicrosoftYaHei-31"/>
       <use xlink:href="#MicrosoftYaHei-37" transform="translate(58.642578 0)"/>
       <use xlink:href="#MicrosoftYaHei-2e" transform="translate(117.285156 0)"/>
       <use xlink:href="#MicrosoftYaHei-35" transform="translate(141.357422 0)"/>
      </g>
     </g>
    </g>
    <g id="ytick_25">
     <g id="line2d_59">
      <path d="M 585.54098 44.518726 
L 1064.166335 44.518726 
" clip-path="url(#p525e34e6dd)" style="fill: none; stroke-dasharray: 3.7,1.6; stroke-dashoffset: 0; stroke: #ffffff; stroke-opacity: 0.3"/>
     </g>
     <g id="line2d_60"/>
     <g id="text_27">
      <!-- 20.0 -->
      <g style="fill: #262626" transform="translate(558.54098 48.515601) scale(0.1 -0.1)">
       <use xlink:href="#MicrosoftYaHei-32"/>
       <use xlink:href="#MicrosoftYaHei-30" transform="translate(58.642578 0)"/>
       <use xlink:href="#MicrosoftYaHei-2e" transform="translate(117.285156 0)"/>
       <use xlink:href="#MicrosoftYaHei-30" transform="translate(141.357422 0)"/>
      </g>
     </g>
    </g>
    <g id="text_28">
     <!-- 加速比 -->
     <g style="fill: #262626" transform="translate(551.557855 221.09125) rotate(-90) scale(0.12 -0.12)">
      <defs>
       <path id="MicrosoftYaHei-Bold-52a0" d="M 1475 -716 
Q 1381 -278 1256 222 
Q 1644 197 1894 197 
Q 2044 197 2126 261 
Q 2209 325 2228 437 
Q 2247 550 2272 1386 
Q 2297 2222 2306 3472 
L 1700 3472 
Q 1666 503 575 -878 
Q 356 -453 81 16 
Q 863 1125 891 3472 
L 175 3472 
L 175 4291 
L 909 4291 
Q 919 4828 919 5322 
L 1731 5322 
L 1716 4291 
L 3131 4291 
L 3091 1766 
L 3050 300 
Q 3034 -147 2861 -378 
Q 2688 -609 2448 -662 
Q 2209 -716 1475 -716 
z
M 3500 -716 
L 3500 4797 
L 6025 4797 
L 6025 -678 
L 5188 -678 
L 5188 -166 
L 4338 -166 
L 4338 -716 
L 3500 -716 
z
M 5188 3978 
L 4338 3978 
L 4338 653 
L 5188 653 
L 5188 3978 
z
" transform="scale(0.015625)"/>
       <path id="MicrosoftYaHei-Bold-901f" d="M 4650 1772 
Q 5488 1366 6250 941 
L 5850 284 
Q 5063 766 4388 1128 
L 4388 153 
L 3594 153 
L 3594 1191 
Q 3031 603 2319 247 
Q 2119 578 1806 959 
Q 2669 1216 3356 1828 
L 2113 1828 
L 2113 3628 
L 3594 3628 
L 3594 4016 
L 1900 4016 
L 1900 4766 
L 3594 4766 
L 3594 5303 
L 4388 5303 
L 4388 4766 
L 6100 4766 
L 6100 4016 
L 4388 4016 
L 4388 3628 
L 5875 3628 
L 5875 1828 
L 4388 1828 
L 4388 1347 
L 4650 1772 
z
M 2825 22 
Q 4075 -16 6306 34 
Q 6125 -428 6006 -753 
Q 4181 -753 2644 -722 
Q 1694 -722 1138 -116 
Q 888 -403 456 -891 
L 106 41 
Q 356 266 694 553 
L 694 2297 
L 138 2297 
L 138 3122 
L 1475 3122 
L 1475 547 
Q 1844 22 2825 22 
z
M 969 5309 
Q 1406 4647 1725 4084 
Q 1250 3841 956 3678 
Q 650 4316 275 4941 
L 969 5309 
z
M 5175 2978 
L 4388 2978 
L 4388 2478 
L 5175 2478 
L 5175 2978 
z
M 2813 2478 
L 3594 2478 
L 3594 2978 
L 2813 2978 
L 2813 2478 
z
" transform="scale(0.015625)"/>
      </defs>
      <use xlink:href="#MicrosoftYaHei-Bold-52a0"/>
      <use xlink:href="#MicrosoftYaHei-Bold-901f" transform="translate(100 0)"/>
      <use xlink:href="#MicrosoftYaHei-Bold-6bd4" transform="translate(200 0)"/>
     </g>
    </g>
   </g>
   <g id="patch_8">
    <path d="M 607.296678 381.79125 
L 679.815671 381.79125 
L 679.815671 352.793458 
L 607.296678 352.793458 
z
" clip-path="url(#p525e34e6dd)" style="fill: #f08080; opacity: 0.8; stroke: #000000; stroke-linejoin: miter"/>
   </g>
   <g id="patch_9">
    <path d="M 697.94542 381.79125 
L 770.464413 381.79125 
L 770.464413 312.150124 
L 697.94542 312.150124 
z
" clip-path="url(#p525e34e6dd)" style="fill: #ffd700; opacity: 0.8; stroke: #000000; stroke-linejoin: miter"/>
   </g>
   <g id="patch_10">
    <path d="M 788.594161 381.79125 
L 861.113154 381.79125 
L 861.113154 294.166715 
L 788.594161 294.166715 
z
" clip-path="url(#p525e34e6dd)" style="fill: #ffd700; opacity: 0.8; stroke: #000000; stroke-linejoin: miter"/>
   </g>
   <g id="patch_11">
    <path d="M 879.242903 381.79125 
L 951.761896 381.79125 
L 951.761896 270.146958 
L 879.242903 270.146958 
z
" clip-path="url(#p525e34e6dd)" style="fill: #ffd700; opacity: 0.8; stroke: #000000; stroke-linejoin: miter"/>
   </g>
   <g id="patch_12">
    <path d="M 969.891644 381.79125 
L 1042.410637 381.79125 
L 1042.410637 41.410298 
L 969.891644 41.410298 
z
" clip-path="url(#p525e34e6dd)" style="fill: #ffd700; opacity: 0.8; stroke: #000000; stroke-linejoin: miter"/>
   </g>
   <g id="patch_13">
    <path d="M 585.54098 381.79125 
L 585.54098 24.39125 
" style="fill: none"/>
   </g>
   <g id="patch_14">
    <path d="M 1064.166335 381.79125 
L 1064.166335 24.39125 
" style="fill: none"/>
   </g>
   <g id="patch_15">
    <path d="M 585.54098 381.79125 
L 1064.166335 381.79125 
" style="fill: none"/>
   </g>
   <g id="patch_16">
    <path d="M 585.54098 24.39125 
L 1064.166335 24.39125 
" style="fill: none"/>
   </g>
   <g id="text_29">
    <!-- 1.7x -->
    <g style="fill: #262626" transform="translate(633.035862 348.621158) scale(0.1 -0.1)">
     <defs>
      <path id="MicrosoftYaHei-Bold-31" d="M 2716 4947 
L 2716 0 
L 1700 0 
L 1700 3809 
Q 1513 3647 1188 3517 
Q 863 3388 591 3356 
L 591 4222 
Q 1447 4472 2072 4947 
L 2716 4947 
z
" transform="scale(0.015625)"/>
      <path id="MicrosoftYaHei-Bold-2e" d="M 313 453 
Q 313 688 491 838 
Q 669 988 916 988 
Q 1166 988 1337 834 
Q 1509 681 1509 453 
Q 1509 213 1337 64 
Q 1166 -84 903 -84 
Q 659 -84 486 69 
Q 313 222 313 453 
z
" transform="scale(0.015625)"/>
      <path id="MicrosoftYaHei-Bold-37" d="M 3675 4225 
Q 3088 3172 2798 2528 
Q 2509 1884 2328 1275 
Q 2147 666 2050 0 
L 966 0 
Q 1122 947 1517 1917 
Q 1913 2888 2609 4009 
L 300 4009 
L 300 4841 
L 3675 4841 
L 3675 4225 
z
" transform="scale(0.015625)"/>
      <path id="MicrosoftYaHei-Bold-78" d="M 3706 3456 
L 2563 1772 
L 3697 0 
L 2531 0 
L 2016 953 
Q 1909 1150 1869 1263 
L 1856 1263 
Q 1800 1113 1716 963 
L 1191 0 
L 31 0 
L 1200 1719 
L 100 3456 
L 1269 3456 
L 1781 2463 
Q 1856 2319 1922 2144 
L 1934 2144 
Q 1966 2250 2078 2466 
L 2606 3456 
L 3706 3456 
z
" transform="scale(0.015625)"/>
     </defs>
     <use xlink:href="#MicrosoftYaHei-Bold-31"/>
     <use xlink:href="#MicrosoftYaHei-Bold-2e" transform="translate(61.669922 0)"/>
     <use xlink:href="#MicrosoftYaHei-Bold-37" transform="translate(90.234375 0)"/>
     <use xlink:href="#MicrosoftYaHei-Bold-78" transform="translate(151.904297 0)"/>
    </g>
   </g>
   <g id="text_30">
    <!-- 4.1x -->
    <g style="fill: #262626" transform="translate(723.684604 307.977824) scale(0.1 -0.1)">
     <defs>
      <path id="MicrosoftYaHei-Bold-34" d="M 3184 4841 
L 3184 1766 
L 3869 1766 
L 3869 1031 
L 3184 1031 
L 3184 0 
L 2266 0 
L 2266 1031 
L 103 1031 
L 103 1772 
Q 775 2522 1362 3359 
Q 1950 4197 2250 4841 
L 3184 4841 
z
M 997 1766 
L 2266 1766 
L 2266 3541 
Q 2116 3259 1836 2859 
Q 1556 2459 997 1766 
z
" transform="scale(0.015625)"/>
     </defs>
     <use xlink:href="#MicrosoftYaHei-Bold-34"/>
     <use xlink:href="#MicrosoftYaHei-Bold-2e" transform="translate(61.669922 0)"/>
     <use xlink:href="#MicrosoftYaHei-Bold-31" transform="translate(90.234375 0)"/>
     <use xlink:href="#MicrosoftYaHei-Bold-78" transform="translate(151.904297 0)"/>
    </g>
   </g>
   <g id="text_31">
    <!-- 5.2x -->
    <g style="fill: #262626" transform="translate(814.333345 289.994415) scale(0.1 -0.1)">
     <defs>
      <path id="MicrosoftYaHei-Bold-35" d="M 541 125 
L 541 997 
Q 1044 691 1613 691 
Q 2041 691 2283 902 
Q 2525 1113 2525 1472 
Q 2525 2225 1494 2225 
Q 1113 2225 616 2169 
L 797 4841 
L 3359 4841 
L 3359 4009 
L 1613 4009 
L 1544 2991 
Q 1803 3013 2022 3013 
Q 2731 3013 3142 2625 
Q 3553 2238 3553 1575 
Q 3553 844 3056 380 
Q 2559 -84 1706 -84 
Q 1016 -84 541 125 
z
" transform="scale(0.015625)"/>
      <path id="MicrosoftYaHei-Bold-32" d="M 1500 841 
L 3553 841 
L 3553 0 
L 334 0 
L 334 359 
Q 334 738 473 1050 
Q 613 1363 856 1633 
Q 1100 1903 1613 2266 
Q 2081 2616 2268 2886 
Q 2456 3156 2456 3459 
Q 2456 4113 1744 4113 
Q 1119 4113 550 3613 
L 550 4513 
Q 1184 4922 1975 4922 
Q 2700 4922 3122 4551 
Q 3544 4181 3544 3531 
Q 3544 3169 3422 2876 
Q 3300 2584 3069 2328 
Q 2838 2072 2328 1713 
Q 1838 1363 1669 1172 
Q 1500 981 1500 841 
z
" transform="scale(0.015625)"/>
     </defs>
     <use xlink:href="#MicrosoftYaHei-Bold-35"/>
     <use xlink:href="#MicrosoftYaHei-Bold-2e" transform="translate(61.669922 0)"/>
     <use xlink:href="#MicrosoftYaHei-Bold-32" transform="translate(90.234375 0)"/>
     <use xlink:href="#MicrosoftYaHei-Bold-78" transform="translate(151.904297 0)"/>
    </g>
   </g>
   <g id="text_32">
    <!-- 6.6x -->
    <g style="fill: #262626" transform="translate(904.982087 265.974658) scale(0.1 -0.1)">
     <defs>
      <path id="MicrosoftYaHei-Bold-36" d="M 3378 3938 
Q 3009 4147 2575 4147 
Q 2016 4147 1680 3708 
Q 1344 3269 1344 2572 
L 1363 2572 
Q 1709 3103 2391 3103 
Q 3000 3103 3358 2686 
Q 3716 2269 3716 1600 
Q 3716 869 3250 392 
Q 2784 -84 2059 -84 
Q 1228 -84 786 516 
Q 344 1116 344 2159 
Q 344 3388 917 4155 
Q 1491 4922 2513 4922 
Q 3063 4922 3378 4791 
L 3378 3938 
z
M 1378 1591 
Q 1378 1216 1565 953 
Q 1753 691 2059 691 
Q 2369 691 2547 931 
Q 2725 1172 2725 1534 
Q 2725 2350 2053 2350 
Q 1750 2350 1564 2134 
Q 1378 1919 1378 1591 
z
" transform="scale(0.015625)"/>
     </defs>
     <use xlink:href="#MicrosoftYaHei-Bold-36"/>
     <use xlink:href="#MicrosoftYaHei-Bold-2e" transform="translate(61.669922 0)"/>
     <use xlink:href="#MicrosoftYaHei-Bold-36" transform="translate(90.234375 0)"/>
     <use xlink:href="#MicrosoftYaHei-Bold-78" transform="translate(151.904297 0)"/>
    </g>
   </g>
   <g id="text_33">
    <!-- 20.2x -->
    <g style="fill: #262626" transform="translate(992.547234 37.237998) scale(0.1 -0.1)">
     <defs>
      <path id="MicrosoftYaHei-Bold-30" d="M 244 2341 
Q 244 3597 706 4259 
Q 1169 4922 2044 4922 
Q 3713 4922 3713 2453 
Q 3713 1238 3259 577 
Q 2806 -84 1950 -84 
Q 244 -84 244 2341 
z
M 1266 2366 
Q 1266 691 1981 691 
Q 2684 691 2684 2416 
Q 2684 4147 2000 4147 
Q 1266 4147 1266 2366 
z
" transform="scale(0.015625)"/>
     </defs>
     <use xlink:href="#MicrosoftYaHei-Bold-32"/>
     <use xlink:href="#MicrosoftYaHei-Bold-30" transform="translate(61.669922 0)"/>
     <use xlink:href="#MicrosoftYaHei-Bold-2e" transform="translate(123.339844 0)"/>
     <use xlink:href="#MicrosoftYaHei-Bold-32" transform="translate(151.904297 0)"/>
     <use xlink:href="#MicrosoftYaHei-Bold-78" transform="translate(213.574219 0)"/>
    </g>
   </g>
   <g id="text_34">
    <!-- 缓存加速效果 -->
    <g style="fill: #262626" transform="translate(782.853658 18.39125) scale(0.14 -0.14)">
     <defs>
      <path id="MicrosoftYaHei-Bold-7f13" d="M 5944 1753 
L 5944 1122 
Q 5606 575 5175 184 
Q 5697 16 6325 -47 
Q 6163 -303 5913 -822 
Q 5000 -650 4422 -344 
Q 3769 -700 2925 -878 
Q 2788 -572 2600 -244 
Q 2384 -553 2125 -841 
Q 1881 -466 1700 -234 
L 231 -484 
L 69 316 
L 2031 616 
Q 2028 459 2028 325 
Q 2572 1066 2772 2091 
L 2150 2091 
L 2150 2722 
L 2863 2722 
Q 2878 2888 2888 3059 
L 2275 3059 
L 2275 3656 
Q 1606 2450 1156 1797 
L 2138 1909 
Q 2100 1453 2100 1147 
Q 1231 1078 406 934 
L 188 1628 
Q 506 2000 953 2741 
Q 613 2716 288 2684 
L 88 3359 
Q 425 3797 1100 5328 
L 1844 5084 
Q 1300 4016 906 3416 
Q 1075 3416 1353 3428 
L 1775 4203 
L 2438 3953 
L 2294 3691 
L 2688 3691 
L 2500 4078 
L 3144 4322 
L 3413 3691 
L 3900 3691 
Q 3809 3978 3706 4241 
L 4394 4403 
Q 4541 3984 4622 3691 
L 4831 3691 
Q 5063 4078 5263 4459 
L 5975 4197 
Q 5788 3916 5628 3691 
L 6138 3691 
L 6138 3059 
L 3638 3059 
Q 3628 2888 3609 2722 
L 6238 2722 
L 6238 2091 
L 3525 2091 
Q 3494 1919 3456 1753 
L 5944 1753 
z
M 4444 516 
Q 4838 794 5088 1128 
L 3772 1128 
Q 4069 759 4444 516 
z
M 2681 -125 
Q 3269 -19 3731 150 
Q 3450 416 3169 803 
Q 2972 319 2681 -125 
z
M 2188 4997 
Q 4019 5047 5931 5228 
L 6075 4541 
L 2350 4297 
Q 2319 4509 2188 4997 
z
" transform="scale(0.015625)"/>
      <path id="MicrosoftYaHei-Bold-5b58" d="M 1731 -847 
L 888 -847 
L 888 1703 
Q 609 1406 306 1147 
L 94 2109 
Q 906 2959 1400 3978 
L 125 3978 
L 125 4759 
L 1722 4759 
Q 1822 5050 1900 5353 
L 2819 5191 
Q 2750 4972 2672 4759 
L 6281 4759 
L 6281 3978 
L 2359 3978 
Q 2078 3347 1731 2800 
L 1731 -847 
z
M 1913 1759 
L 3888 1759 
L 3888 2091 
Q 4431 2434 4794 2691 
L 2288 2691 
L 2288 3434 
L 6019 3434 
L 6019 2678 
Q 5394 2228 4775 1822 
L 4775 1759 
L 6319 1759 
L 6319 1003 
L 4775 1003 
L 4775 9 
Q 4775 -372 4567 -556 
Q 4359 -741 3992 -759 
Q 3625 -778 2850 -797 
Q 2769 -284 2681 22 
Q 2997 -6 3331 -6 
Q 3659 -6 3771 58 
Q 3884 122 3888 297 
L 3888 1003 
L 1913 1003 
L 1913 1759 
z
" transform="scale(0.015625)"/>
      <path id="MicrosoftYaHei-Bold-6548" d="M 1169 2122 
L 1806 1500 
Q 2019 1891 2131 2341 
L 2778 2159 
Q 2425 2663 1944 3203 
L 2550 3634 
Q 2841 3325 3084 3041 
Q 3653 4084 3956 5359 
L 4769 5247 
Q 4666 4809 4506 4366 
L 6294 4366 
L 6294 3534 
L 5931 3534 
Q 5778 1931 5213 928 
Q 5666 353 6319 22 
Q 6100 -278 5788 -809 
Q 5156 -378 4703 216 
Q 4141 -419 3331 -866 
Q 3069 -478 2756 -147 
Q 3644 325 4213 1000 
Q 3863 1697 3688 2556 
Q 3534 2281 3363 2003 
Q 3259 2166 3128 2363 
L 2838 2144 
L 2919 2122 
Q 2725 1472 2394 919 
Q 2791 519 3081 209 
L 2475 -372 
Q 2219 -59 1928 266 
Q 1375 -388 581 -866 
Q 350 -484 56 -91 
Q 856 300 1366 872 
Q 1013 1241 619 1628 
L 1169 2122 
z
M 4713 1772 
Q 5038 2481 5147 3534 
L 4256 3534 
Q 4378 2525 4713 1772 
z
M 200 4553 
L 1388 4553 
Q 1294 4847 1163 5178 
L 2000 5359 
Q 2163 4922 2259 4553 
L 3325 4553 
L 3325 3778 
L 200 3778 
L 200 4553 
z
M 950 3609 
L 1663 3272 
Q 1200 2441 625 1872 
Q 269 2284 75 2466 
Q 588 2984 950 3609 
z
" transform="scale(0.015625)"/>
      <path id="MicrosoftYaHei-Bold-679c" d="M 225 1753 
L 2788 1753 
L 2788 2178 
L 788 2178 
L 788 5091 
L 5638 5091 
L 5638 2178 
L 3638 2178 
L 3638 1753 
L 6181 1753 
L 6181 978 
L 4197 978 
Q 5197 353 6338 178 
Q 6100 -291 5975 -659 
Q 4516 -222 3638 663 
L 3638 -841 
L 2788 -841 
L 2788 616 
Q 1991 -172 581 -691 
Q 388 -316 150 91 
Q 1481 384 2269 978 
L 225 978 
L 225 1753 
z
M 4800 4416 
L 3638 4416 
L 3638 3972 
L 4800 3972 
L 4800 4416 
z
M 1625 3972 
L 2788 3972 
L 2788 4416 
L 1625 4416 
L 1625 3972 
z
M 4800 2853 
L 4800 3297 
L 3638 3297 
L 3638 2853 
L 4800 2853 
z
M 1625 2853 
L 2788 2853 
L 2788 3297 
L 1625 3297 
L 1625 2853 
z
" transform="scale(0.015625)"/>
     </defs>
     <use xlink:href="#MicrosoftYaHei-Bold-7f13"/>
     <use xlink:href="#MicrosoftYaHei-Bold-5b58" transform="translate(100 0)"/>
     <use xlink:href="#MicrosoftYaHei-Bold-52a0" transform="translate(200 0)"/>
     <use xlink:href="#MicrosoftYaHei-Bold-901f" transform="translate(300 0)"/>
     <use xlink:href="#MicrosoftYaHei-Bold-6548" transform="translate(400 0)"/>
     <use xlink:href="#MicrosoftYaHei-Bold-679c" transform="translate(500 0)"/>
    </g>
   </g>
  </g>
 </g>
 <defs>
  <clipPath id="pdde9c4394f">
   <rect x="52.175625" y="24.39125" width="478.625355" height="357.4"/>
  </clipPath>
  <clipPath id="p525e34e6dd">
   <rect x="585.54098" y="24.39125" width="478.625355" height="357.4"/>
  </clipPath>
 </defs>
</svg>
